<?xml version="1.0" encoding="UTF-8" standalone="no"?>
<!DOCTYPE svg PUBLIC "-//W3C//DTD SVG 1.1//EN"
 "http://www.w3.org/Graphics/SVG/1.1/DTD/svg11.dtd">
<!-- Generated by graphviz version 2.44.1 (20200629.0846)
 -->
<!-- Title: dependencies Pages: 1 -->
<svg width="2278pt" height="284pt"
 viewBox="0.00 0.00 2278.00 284.00" xmlns="http://www.w3.org/2000/svg" xmlns:xlink="http://www.w3.org/1999/xlink">
<g id="graph0" class="graph" transform="scale(1 1) rotate(0) translate(4 280)">
<title>dependencies</title>
<polygon fill="white" stroke="transparent" points="-4,4 -4,-280 2274,-280 2274,4 -4,4"/>
<text text-anchor="start" x="1114.01" y="-42.4" font-family="sans-serif" font-weight="bold" font-size="14.00">Legend</text>
<polygon fill="#ffffb3" stroke="transparent" points="901,-10 901,-30 921,-30 921,-10 901,-10"/>
<text text-anchor="start" x="924.63" y="-15.4" font-family="sans-serif" font-size="14.00"> &#160;Declarations</text>
<polygon fill="#8dd3c7" stroke="transparent" points="1014,-10 1014,-30 1034,-30 1034,-10 1014,-10"/>
<text text-anchor="start" x="1037.73" y="-15.4" font-family="sans-serif" font-size="14.00"> &#160;Module</text>
<polygon fill="#80b1d3" stroke="transparent" points="1100,-10 1100,-30 1120,-30 1120,-10 1100,-10"/>
<text text-anchor="start" x="1123.78" y="-15.4" font-family="sans-serif" font-size="14.00"> &#160;Bootstrap</text>
<polygon fill="#fdb462" stroke="transparent" points="1197,-10 1197,-30 1217,-30 1217,-10 1197,-10"/>
<text text-anchor="start" x="1220.67" y="-15.4" font-family="sans-serif" font-size="14.00"> &#160;Providers</text>
<polygon fill="#fb8072" stroke="transparent" points="1293,-10 1293,-30 1313,-30 1313,-10 1293,-10"/>
<text text-anchor="start" x="1316.73" y="-15.4" font-family="sans-serif" font-size="14.00"> &#160;Exports</text>
<g id="clust1" class="cluster">
<title>cluster_AppModule</title>
<polygon fill="none" stroke="black" stroke-dasharray="1,5" points="8,-70 8,-268 2262,-268 2262,-70 8,-70"/>
</g>
<g id="clust17" class="cluster">
<title>cluster_AppModule_imports</title>
<polygon fill="none" stroke="black" points="2110,-78 2110,-130 2254,-130 2254,-78 2110,-78"/>
</g>
<g id="clust19" class="cluster">
<title>cluster_AppModule_bootstrap</title>
<polygon fill="none" stroke="black" points="1076,-208 1076,-260 1200,-260 1200,-208 1076,-208"/>
</g>
<g id="clust2" class="cluster">
<title>cluster_AppModule_declarations</title>
<polygon fill="none" stroke="black" points="16,-78 16,-130 2102,-130 2102,-78 16,-78"/>
</g>
<!-- AlertasComponent -->
<g id="node1" class="node">
<title>AlertasComponent</title>
<polygon fill="#ffffb3" stroke="black" points="2093.75,-122 1972.25,-122 1972.25,-86 2093.75,-86 2093.75,-122"/>
<text text-anchor="middle" x="2033" y="-99.8" font-family="Times,serif" font-size="14.00">AlertasComponent</text>
</g>
<!-- AppModule -->
<g id="node15" class="node">
<title>AppModule</title>
<polygon fill="#8dd3c7" stroke="black" points="1179.66,-187 1176.66,-191 1155.66,-191 1152.66,-187 1096.34,-187 1096.34,-151 1179.66,-151 1179.66,-187"/>
<text text-anchor="middle" x="1138" y="-164.8" font-family="Times,serif" font-size="14.00">AppModule</text>
</g>
<!-- AlertasComponent&#45;&gt;AppModule -->
<g id="edge1" class="edge">
<title>AlertasComponent&#45;&gt;AppModule</title>
<path fill="none" stroke="black" d="M2033,-122.29C2033,-144.21 2033,-178 2033,-178 2033,-178 1189.67,-178 1189.67,-178"/>
<polygon fill="black" stroke="black" points="1189.67,-174.5 1179.67,-178 1189.67,-181.5 1189.67,-174.5"/>
</g>
<!-- AppComponent -->
<g id="node2" class="node">
<title>AppComponent</title>
<polygon fill="#ffffb3" stroke="black" points="1953.94,-122 1848.06,-122 1848.06,-86 1953.94,-86 1953.94,-122"/>
<text text-anchor="middle" x="1901" y="-99.8" font-family="Times,serif" font-size="14.00">AppComponent</text>
</g>
<!-- AppComponent&#45;&gt;AppModule -->
<g id="edge2" class="edge">
<title>AppComponent&#45;&gt;AppModule</title>
<path fill="none" stroke="black" d="M1901,-122.03C1901,-142.77 1901,-174 1901,-174 1901,-174 1189.84,-174 1189.84,-174"/>
<polygon fill="black" stroke="black" points="1189.84,-170.5 1179.84,-174 1189.84,-177.5 1189.84,-170.5"/>
</g>
<!-- CadastroComponent -->
<g id="node3" class="node">
<title>CadastroComponent</title>
<polygon fill="#ffffb3" stroke="black" points="1830.59,-122 1699.41,-122 1699.41,-86 1830.59,-86 1830.59,-122"/>
<text text-anchor="middle" x="1765" y="-99.8" font-family="Times,serif" font-size="14.00">CadastroComponent</text>
</g>
<!-- CadastroComponent&#45;&gt;AppModule -->
<g id="edge3" class="edge">
<title>CadastroComponent&#45;&gt;AppModule</title>
<path fill="none" stroke="black" d="M1765,-122.11C1765,-141.34 1765,-169 1765,-169 1765,-169 1190.11,-169 1190.11,-169"/>
<polygon fill="black" stroke="black" points="1190.11,-165.5 1180.11,-169 1190.11,-172.5 1190.11,-165.5"/>
</g>
<!-- DeletePostagemComponent -->
<g id="node4" class="node">
<title>DeletePostagemComponent</title>
<polygon fill="#ffffb3" stroke="black" points="1681.3,-122 1508.7,-122 1508.7,-86 1681.3,-86 1681.3,-122"/>
<text text-anchor="middle" x="1595" y="-99.8" font-family="Times,serif" font-size="14.00">DeletePostagemComponent</text>
</g>
<!-- DeletePostagemComponent&#45;&gt;AppModule -->
<g id="edge4" class="edge">
<title>DeletePostagemComponent&#45;&gt;AppModule</title>
<path fill="none" stroke="black" d="M1595,-122.3C1595,-140.27 1595,-165 1595,-165 1595,-165 1189.77,-165 1189.77,-165"/>
<polygon fill="black" stroke="black" points="1189.77,-161.5 1179.77,-165 1189.77,-168.5 1189.77,-161.5"/>
</g>
<!-- DeleteTemaComponent -->
<g id="node5" class="node">
<title>DeleteTemaComponent</title>
<polygon fill="#ffffb3" stroke="black" points="1490.74,-122 1341.26,-122 1341.26,-86 1490.74,-86 1490.74,-122"/>
<text text-anchor="middle" x="1416" y="-99.8" font-family="Times,serif" font-size="14.00">DeleteTemaComponent</text>
</g>
<!-- DeleteTemaComponent&#45;&gt;AppModule -->
<g id="edge5" class="edge">
<title>DeleteTemaComponent&#45;&gt;AppModule</title>
<path fill="none" stroke="black" d="M1416,-122.03C1416,-138.4 1416,-160 1416,-160 1416,-160 1189.92,-160 1189.92,-160"/>
<polygon fill="black" stroke="black" points="1189.92,-156.5 1179.92,-160 1189.92,-163.5 1189.92,-156.5"/>
</g>
<!-- FeedComponent -->
<g id="node6" class="node">
<title>FeedComponent</title>
<polygon fill="#ffffb3" stroke="black" points="1323.05,-122 1214.95,-122 1214.95,-86 1323.05,-86 1323.05,-122"/>
<text text-anchor="middle" x="1269" y="-99.8" font-family="Times,serif" font-size="14.00">FeedComponent</text>
</g>
<!-- FeedComponent&#45;&gt;AppModule -->
<g id="edge6" class="edge">
<title>FeedComponent&#45;&gt;AppModule</title>
<path fill="none" stroke="black" d="M1269,-122.19C1269,-137.18 1269,-156 1269,-156 1269,-156 1189.81,-156 1189.81,-156"/>
<polygon fill="black" stroke="black" points="1189.81,-152.5 1179.81,-156 1189.81,-159.5 1189.81,-152.5"/>
</g>
<!-- FooterComponent -->
<g id="node7" class="node">
<title>FooterComponent</title>
<polygon fill="#ffffb3" stroke="black" points="1196.88,-122 1079.12,-122 1079.12,-86 1196.88,-86 1196.88,-122"/>
<text text-anchor="middle" x="1138" y="-99.8" font-family="Times,serif" font-size="14.00">FooterComponent</text>
</g>
<!-- FooterComponent&#45;&gt;AppModule -->
<g id="edge7" class="edge">
<title>FooterComponent&#45;&gt;AppModule</title>
<path fill="none" stroke="black" d="M1138,-122.11C1138,-122.11 1138,-140.99 1138,-140.99"/>
<polygon fill="black" stroke="black" points="1134.5,-140.99 1138,-150.99 1141.5,-140.99 1134.5,-140.99"/>
</g>
<!-- HomeComponent -->
<g id="node8" class="node">
<title>HomeComponent</title>
<polygon fill="#ffffb3" stroke="black" points="1060.55,-122 945.45,-122 945.45,-86 1060.55,-86 1060.55,-122"/>
<text text-anchor="middle" x="1003" y="-99.8" font-family="Times,serif" font-size="14.00">HomeComponent</text>
</g>
<!-- HomeComponent&#45;&gt;AppModule -->
<g id="edge8" class="edge">
<title>HomeComponent&#45;&gt;AppModule</title>
<path fill="none" stroke="black" d="M1003,-122.19C1003,-137.18 1003,-156 1003,-156 1003,-156 1086.03,-156 1086.03,-156"/>
<polygon fill="black" stroke="black" points="1086.03,-159.5 1096.03,-156 1086.03,-152.5 1086.03,-159.5"/>
</g>
<!-- LoginComponent -->
<g id="node9" class="node">
<title>LoginComponent</title>
<polygon fill="#ffffb3" stroke="black" points="927.28,-122 812.72,-122 812.72,-86 927.28,-86 927.28,-122"/>
<text text-anchor="middle" x="870" y="-99.8" font-family="Times,serif" font-size="14.00">LoginComponent</text>
</g>
<!-- LoginComponent&#45;&gt;AppModule -->
<g id="edge9" class="edge">
<title>LoginComponent&#45;&gt;AppModule</title>
<path fill="none" stroke="black" d="M870,-122.03C870,-138.4 870,-160 870,-160 870,-160 1086.12,-160 1086.12,-160"/>
<polygon fill="black" stroke="black" points="1086.13,-163.5 1096.12,-160 1086.12,-156.5 1086.13,-163.5"/>
</g>
<!-- NavbarComponent -->
<g id="node10" class="node">
<title>NavbarComponent</title>
<polygon fill="#ffffb3" stroke="black" points="794.03,-122 671.97,-122 671.97,-86 794.03,-86 794.03,-122"/>
<text text-anchor="middle" x="733" y="-99.8" font-family="Times,serif" font-size="14.00">NavbarComponent</text>
</g>
<!-- NavbarComponent&#45;&gt;AppModule -->
<g id="edge10" class="edge">
<title>NavbarComponent&#45;&gt;AppModule</title>
<path fill="none" stroke="black" d="M733,-122.3C733,-140.27 733,-165 733,-165 733,-165 1086.18,-165 1086.18,-165"/>
<polygon fill="black" stroke="black" points="1086.18,-168.5 1096.18,-165 1086.18,-161.5 1086.18,-168.5"/>
</g>
<!-- PerfilLateralComponent -->
<g id="node11" class="node">
<title>PerfilLateralComponent</title>
<polygon fill="#ffffb3" stroke="black" points="654.07,-122 501.93,-122 501.93,-86 654.07,-86 654.07,-122"/>
<text text-anchor="middle" x="578" y="-99.8" font-family="Times,serif" font-size="14.00">PerfilLateralComponent</text>
</g>
<!-- PerfilLateralComponent&#45;&gt;AppModule -->
<g id="edge11" class="edge">
<title>PerfilLateralComponent&#45;&gt;AppModule</title>
<path fill="none" stroke="black" d="M578,-122.11C578,-141.34 578,-169 578,-169 578,-169 1085.91,-169 1085.91,-169"/>
<polygon fill="black" stroke="black" points="1085.91,-172.5 1095.91,-169 1085.91,-165.5 1085.91,-172.5"/>
</g>
<!-- PostTemaComponent -->
<g id="node12" class="node">
<title>PostTemaComponent</title>
<polygon fill="#ffffb3" stroke="black" points="483.82,-122 346.18,-122 346.18,-86 483.82,-86 483.82,-122"/>
<text text-anchor="middle" x="415" y="-99.8" font-family="Times,serif" font-size="14.00">PostTemaComponent</text>
</g>
<!-- PostTemaComponent&#45;&gt;AppModule -->
<g id="edge12" class="edge">
<title>PostTemaComponent&#45;&gt;AppModule</title>
<path fill="none" stroke="black" d="M415,-122.03C415,-142.77 415,-174 415,-174 415,-174 1086.27,-174 1086.27,-174"/>
<polygon fill="black" stroke="black" points="1086.27,-177.5 1096.27,-174 1086.27,-170.5 1086.27,-177.5"/>
</g>
<!-- PutPostagemComponent -->
<g id="node13" class="node">
<title>PutPostagemComponent</title>
<polygon fill="#ffffb3" stroke="black" points="328.44,-122 173.56,-122 173.56,-86 328.44,-86 328.44,-122"/>
<text text-anchor="middle" x="251" y="-99.8" font-family="Times,serif" font-size="14.00">PutPostagemComponent</text>
</g>
<!-- PutPostagemComponent&#45;&gt;AppModule -->
<g id="edge13" class="edge">
<title>PutPostagemComponent&#45;&gt;AppModule</title>
<path fill="none" stroke="black" d="M251,-122.29C251,-144.21 251,-178 251,-178 251,-178 1086.11,-178 1086.11,-178"/>
<polygon fill="black" stroke="black" points="1086.11,-181.5 1096.11,-178 1086.11,-174.5 1086.11,-181.5"/>
</g>
<!-- PutTemaComponent -->
<g id="node14" class="node">
<title>PutTemaComponent</title>
<polygon fill="#ffffb3" stroke="black" points="155.88,-122 24.12,-122 24.12,-86 155.88,-86 155.88,-122"/>
<text text-anchor="middle" x="90" y="-99.8" font-family="Times,serif" font-size="14.00">PutTemaComponent</text>
</g>
<!-- PutTemaComponent&#45;&gt;AppModule -->
<g id="edge14" class="edge">
<title>PutTemaComponent&#45;&gt;AppModule</title>
<path fill="none" stroke="black" d="M90,-122.32C90,-145.66 90,-183 90,-183 90,-183 1086.27,-183 1086.27,-183"/>
<polygon fill="black" stroke="black" points="1086.27,-186.5 1096.27,-183 1086.27,-179.5 1086.27,-186.5"/>
</g>
<!-- AppComponent  -->
<g id="node17" class="node">
<title>AppComponent </title>
<polygon fill="#80b1d3" stroke="black" points="1192.44,-252 1083.56,-252 1083.56,-216 1192.44,-216 1192.44,-252"/>
<text text-anchor="middle" x="1138" y="-229.8" font-family="Times,serif" font-size="14.00">AppComponent </text>
</g>
<!-- AppModule&#45;&gt;AppComponent  -->
<g id="edge16" class="edge">
<title>AppModule&#45;&gt;AppComponent </title>
<path fill="none" stroke="black" stroke-dasharray="1,5" d="M1138,-187.11C1138,-187.11 1138,-205.99 1138,-205.99"/>
<polygon fill="black" stroke="black" points="1134.5,-205.99 1138,-215.99 1141.5,-205.99 1134.5,-205.99"/>
</g>
<!-- AppRoutingModule -->
<g id="node16" class="node">
<title>AppRoutingModule</title>
<polygon fill="#8dd3c7" stroke="black" points="2246.27,-122 2243.27,-126 2222.27,-126 2219.27,-122 2117.73,-122 2117.73,-86 2246.27,-86 2246.27,-122"/>
<text text-anchor="middle" x="2182" y="-99.8" font-family="Times,serif" font-size="14.00">AppRoutingModule</text>
</g>
<!-- AppRoutingModule&#45;&gt;AppModule -->
<g id="edge15" class="edge">
<title>AppRoutingModule&#45;&gt;AppModule</title>
<path fill="none" stroke="black" d="M2182,-122.32C2182,-145.66 2182,-183 2182,-183 2182,-183 1189.89,-183 1189.89,-183"/>
<polygon fill="black" stroke="black" points="1189.89,-179.5 1179.89,-183 1189.89,-186.5 1189.89,-179.5"/>
</g>
</g>
</svg>
