<?xml version="1.0" encoding="UTF-8" standalone="no"?>
<!DOCTYPE svg PUBLIC "-//W3C//DTD SVG 1.1//EN"
 "http://www.w3.org/Graphics/SVG/1.1/DTD/svg11.dtd">
<!-- Generated by graphviz version 2.44.1 (20200629.0846)
 -->
<!-- Title: dependencies Pages: 1 -->
<svg width="2278pt" height="284pt"
 viewBox="0.00 0.00 2278.00 284.00" xmlns="http://www.w3.org/2000/svg" xmlns:xlink="http://www.w3.org/1999/xlink">
<g id="graph0" class="graph" transform="scale(1 1) rotate(0) translate(4 280)">
<title>dependencies</title>
<polygon fill="white" stroke="transparent" points="-4,4 -4,-280 2274,-280 2274,4 -4,4"/>
<text text-anchor="start" x="1114.01" y="-42.4" font-family="sans-serif" font-weight="bold" font-size="14.00">Legend</text>
<polygon fill="#ffffb3" stroke="transparent" points="901,-10 901,-30 921,-30 921,-10 901,-10"/>
<text text-anchor="start" x="924.63" y="-15.4" font-family="sans-serif" font-size="14.00"> &#160;Declarations</text>
<polygon fill="#8dd3c7" stroke="transparent" points="1014,-10 1014,-30 1034,-30 1034,-10 1014,-10"/>
<text text-anchor="start" x="1037.73" y="-15.4" font-family="sans-serif" font-size="14.00"> &#160;Module</text>
<polygon fill="#80b1d3" stroke="transparent" points="1100,-10 1100,-30 1120,-30 1120,-10 1100,-10"/>
<text text-anchor="start" x="1123.78" y="-15.4" font-family="sans-serif" font-size="14.00"> &#160;Bootstrap</text>
<polygon fill="#fdb462" stroke="transparent" points="1197,-10 1197,-30 1217,-30 1217,-10 1197,-10"/>
<text text-anchor="start" x="1220.67" y="-15.4" font-family="sans-serif" font-size="14.00"> &#160;Providers</text>
<polygon fill="#fb8072" stroke="transparent" points="1293,-10 1293,-30 1313,-30 1313,-10 1293,-10"/>
<text text-anchor="start" x="1316.73" y="-15.4" font-family="sans-serif" font-size="14.00"> &#160;Exports</text>
<g id="clust1" class="cluster">
<title>cluster_AppModule</title>
<polygon fill="none" stroke="black" stroke-dasharray="1,5" points="8,-70 8,-268 2262,-268 2262,-70 8,-70"/>
</g>
<g id="clust2" class="cluster">
<title>cluster_AppModule_declarations</title>
<polygon fill="none" stroke="black" points="168,-78 168,-130 2254,-130 2254,-78 168,-78"/>
</g>
<g id="clust17" class="cluster">
<title>cluster_AppModule_imports</title>
<polygon fill="none" stroke="black" points="16,-78 16,-130 160,-130 160,-78 16,-78"/>
</g>
<g id="clust19" class="cluster">
<title>cluster_AppModule_bootstrap</title>
<polygon fill="none" stroke="black" points="1093,-208 1093,-260 1217,-260 1217,-208 1093,-208"/>
</g>
<!-- AlertasComponent -->
<g id="node1" class="node">
<title>AlertasComponent</title>
<polygon fill="#ffffb3" stroke="black" points="2245.75,-122 2124.25,-122 2124.25,-86 2245.75,-86 2245.75,-122"/>
<text text-anchor="middle" x="2185" y="-99.8" font-family="Times,serif" font-size="14.00">AlertasComponent</text>
</g>
<!-- AppModule -->
<g id="node15" class="node">
<title>AppModule</title>
<polygon fill="#8dd3c7" stroke="black" points="1196.66,-187 1193.66,-191 1172.66,-191 1169.66,-187 1113.34,-187 1113.34,-151 1196.66,-151 1196.66,-187"/>
<text text-anchor="middle" x="1155" y="-164.8" font-family="Times,serif" font-size="14.00">AppModule</text>
</g>
<!-- AlertasComponent&#45;&gt;AppModule -->
<g id="edge1" class="edge">
<title>AlertasComponent&#45;&gt;AppModule</title>
<path fill="none" stroke="black" d="M2185,-122.32C2185,-145.66 2185,-183 2185,-183 2185,-183 1206.97,-183 1206.97,-183"/>
<polygon fill="black" stroke="black" points="1206.97,-179.5 1196.97,-183 1206.97,-186.5 1206.97,-179.5"/>
</g>
<!-- AppComponent -->
<g id="node2" class="node">
<title>AppComponent</title>
<polygon fill="#ffffb3" stroke="black" points="2105.94,-122 2000.06,-122 2000.06,-86 2105.94,-86 2105.94,-122"/>
<text text-anchor="middle" x="2053" y="-99.8" font-family="Times,serif" font-size="14.00">AppComponent</text>
</g>
<!-- AppComponent&#45;&gt;AppModule -->
<g id="edge2" class="edge">
<title>AppComponent&#45;&gt;AppModule</title>
<path fill="none" stroke="black" d="M2053,-122.29C2053,-144.21 2053,-178 2053,-178 2053,-178 1206.81,-178 1206.81,-178"/>
<polygon fill="black" stroke="black" points="1206.81,-174.5 1196.81,-178 1206.81,-181.5 1206.81,-174.5"/>
</g>
<!-- CadastroComponent -->
<g id="node3" class="node">
<title>CadastroComponent</title>
<polygon fill="#ffffb3" stroke="black" points="1982.59,-122 1851.41,-122 1851.41,-86 1982.59,-86 1982.59,-122"/>
<text text-anchor="middle" x="1917" y="-99.8" font-family="Times,serif" font-size="14.00">CadastroComponent</text>
</g>
<!-- CadastroComponent&#45;&gt;AppModule -->
<g id="edge3" class="edge">
<title>CadastroComponent&#45;&gt;AppModule</title>
<path fill="none" stroke="black" d="M1917,-122.03C1917,-142.77 1917,-174 1917,-174 1917,-174 1206.78,-174 1206.78,-174"/>
<polygon fill="black" stroke="black" points="1206.78,-170.5 1196.78,-174 1206.78,-177.5 1206.78,-170.5"/>
</g>
<!-- DeletePostagemComponent -->
<g id="node4" class="node">
<title>DeletePostagemComponent</title>
<polygon fill="#ffffb3" stroke="black" points="1833.3,-122 1660.7,-122 1660.7,-86 1833.3,-86 1833.3,-122"/>
<text text-anchor="middle" x="1747" y="-99.8" font-family="Times,serif" font-size="14.00">DeletePostagemComponent</text>
</g>
<!-- DeletePostagemComponent&#45;&gt;AppModule -->
<g id="edge4" class="edge">
<title>DeletePostagemComponent&#45;&gt;AppModule</title>
<path fill="none" stroke="black" d="M1747,-122.11C1747,-141.34 1747,-169 1747,-169 1747,-169 1207.1,-169 1207.1,-169"/>
<polygon fill="black" stroke="black" points="1207.1,-165.5 1197.1,-169 1207.1,-172.5 1207.1,-165.5"/>
</g>
<!-- DeleteTemaComponent -->
<g id="node5" class="node">
<title>DeleteTemaComponent</title>
<polygon fill="#ffffb3" stroke="black" points="1642.74,-122 1493.26,-122 1493.26,-86 1642.74,-86 1642.74,-122"/>
<text text-anchor="middle" x="1568" y="-99.8" font-family="Times,serif" font-size="14.00">DeleteTemaComponent</text>
</g>
<!-- DeleteTemaComponent&#45;&gt;AppModule -->
<g id="edge5" class="edge">
<title>DeleteTemaComponent&#45;&gt;AppModule</title>
<path fill="none" stroke="black" d="M1568,-122.3C1568,-140.27 1568,-165 1568,-165 1568,-165 1206.87,-165 1206.87,-165"/>
<polygon fill="black" stroke="black" points="1206.87,-161.5 1196.87,-165 1206.87,-168.5 1206.87,-161.5"/>
</g>
<!-- FeedComponent -->
<g id="node6" class="node">
<title>FeedComponent</title>
<polygon fill="#ffffb3" stroke="black" points="1475.05,-122 1366.95,-122 1366.95,-86 1475.05,-86 1475.05,-122"/>
<text text-anchor="middle" x="1421" y="-99.8" font-family="Times,serif" font-size="14.00">FeedComponent</text>
</g>
<!-- FeedComponent&#45;&gt;AppModule -->
<g id="edge6" class="edge">
<title>FeedComponent&#45;&gt;AppModule</title>
<path fill="none" stroke="black" d="M1421,-122.03C1421,-138.4 1421,-160 1421,-160 1421,-160 1206.86,-160 1206.86,-160"/>
<polygon fill="black" stroke="black" points="1206.86,-156.5 1196.86,-160 1206.86,-163.5 1206.86,-156.5"/>
</g>
<!-- FooterComponent -->
<g id="node7" class="node">
<title>FooterComponent</title>
<polygon fill="#ffffb3" stroke="black" points="1348.88,-122 1231.12,-122 1231.12,-86 1348.88,-86 1348.88,-122"/>
<text text-anchor="middle" x="1290" y="-99.8" font-family="Times,serif" font-size="14.00">FooterComponent</text>
</g>
<!-- FooterComponent&#45;&gt;AppModule -->
<g id="edge7" class="edge">
<title>FooterComponent&#45;&gt;AppModule</title>
<path fill="none" stroke="black" d="M1290,-122.19C1290,-137.18 1290,-156 1290,-156 1290,-156 1206.97,-156 1206.97,-156"/>
<polygon fill="black" stroke="black" points="1206.97,-152.5 1196.97,-156 1206.97,-159.5 1206.97,-152.5"/>
</g>
<!-- HomeComponent -->
<g id="node8" class="node">
<title>HomeComponent</title>
<polygon fill="#ffffb3" stroke="black" points="1212.55,-122 1097.45,-122 1097.45,-86 1212.55,-86 1212.55,-122"/>
<text text-anchor="middle" x="1155" y="-99.8" font-family="Times,serif" font-size="14.00">HomeComponent</text>
</g>
<!-- HomeComponent&#45;&gt;AppModule -->
<g id="edge8" class="edge">
<title>HomeComponent&#45;&gt;AppModule</title>
<path fill="none" stroke="black" d="M1155,-122.11C1155,-122.11 1155,-140.99 1155,-140.99"/>
<polygon fill="black" stroke="black" points="1151.5,-140.99 1155,-150.99 1158.5,-140.99 1151.5,-140.99"/>
</g>
<!-- LoginComponent -->
<g id="node9" class="node">
<title>LoginComponent</title>
<polygon fill="#ffffb3" stroke="black" points="1079.28,-122 964.72,-122 964.72,-86 1079.28,-86 1079.28,-122"/>
<text text-anchor="middle" x="1022" y="-99.8" font-family="Times,serif" font-size="14.00">LoginComponent</text>
</g>
<!-- LoginComponent&#45;&gt;AppModule -->
<g id="edge9" class="edge">
<title>LoginComponent&#45;&gt;AppModule</title>
<path fill="none" stroke="black" d="M1022,-122.19C1022,-137.18 1022,-156 1022,-156 1022,-156 1103.28,-156 1103.28,-156"/>
<polygon fill="black" stroke="black" points="1103.28,-159.5 1113.28,-156 1103.28,-152.5 1103.28,-159.5"/>
</g>
<!-- NavbarComponent -->
<g id="node10" class="node">
<title>NavbarComponent</title>
<polygon fill="#ffffb3" stroke="black" points="946.03,-122 823.97,-122 823.97,-86 946.03,-86 946.03,-122"/>
<text text-anchor="middle" x="885" y="-99.8" font-family="Times,serif" font-size="14.00">NavbarComponent</text>
</g>
<!-- NavbarComponent&#45;&gt;AppModule -->
<g id="edge10" class="edge">
<title>NavbarComponent&#45;&gt;AppModule</title>
<path fill="none" stroke="black" d="M885,-122.03C885,-138.4 885,-160 885,-160 885,-160 1103.11,-160 1103.11,-160"/>
<polygon fill="black" stroke="black" points="1103.11,-163.5 1113.11,-160 1103.11,-156.5 1103.11,-163.5"/>
</g>
<!-- PerfilLateralComponent -->
<g id="node11" class="node">
<title>PerfilLateralComponent</title>
<polygon fill="#ffffb3" stroke="black" points="806.07,-122 653.93,-122 653.93,-86 806.07,-86 806.07,-122"/>
<text text-anchor="middle" x="730" y="-99.8" font-family="Times,serif" font-size="14.00">PerfilLateralComponent</text>
</g>
<!-- PerfilLateralComponent&#45;&gt;AppModule -->
<g id="edge11" class="edge">
<title>PerfilLateralComponent&#45;&gt;AppModule</title>
<path fill="none" stroke="black" d="M730,-122.3C730,-140.27 730,-165 730,-165 730,-165 1103.09,-165 1103.09,-165"/>
<polygon fill="black" stroke="black" points="1103.09,-168.5 1113.09,-165 1103.09,-161.5 1103.09,-168.5"/>
</g>
<!-- PostTemaComponent -->
<g id="node12" class="node">
<title>PostTemaComponent</title>
<polygon fill="#ffffb3" stroke="black" points="635.82,-122 498.18,-122 498.18,-86 635.82,-86 635.82,-122"/>
<text text-anchor="middle" x="567" y="-99.8" font-family="Times,serif" font-size="14.00">PostTemaComponent</text>
</g>
<!-- PostTemaComponent&#45;&gt;AppModule -->
<g id="edge12" class="edge">
<title>PostTemaComponent&#45;&gt;AppModule</title>
<path fill="none" stroke="black" d="M567,-122.11C567,-141.34 567,-169 567,-169 567,-169 1103.18,-169 1103.18,-169"/>
<polygon fill="black" stroke="black" points="1103.18,-172.5 1113.18,-169 1103.18,-165.5 1103.18,-172.5"/>
</g>
<!-- PutPostagemComponent -->
<g id="node13" class="node">
<title>PutPostagemComponent</title>
<polygon fill="#ffffb3" stroke="black" points="480.44,-122 325.56,-122 325.56,-86 480.44,-86 480.44,-122"/>
<text text-anchor="middle" x="403" y="-99.8" font-family="Times,serif" font-size="14.00">PutPostagemComponent</text>
</g>
<!-- PutPostagemComponent&#45;&gt;AppModule -->
<g id="edge13" class="edge">
<title>PutPostagemComponent&#45;&gt;AppModule</title>
<path fill="none" stroke="black" d="M403,-122.03C403,-142.77 403,-174 403,-174 403,-174 1103.23,-174 1103.23,-174"/>
<polygon fill="black" stroke="black" points="1103.23,-177.5 1113.23,-174 1103.23,-170.5 1103.23,-177.5"/>
</g>
<!-- PutTemaComponent -->
<g id="node14" class="node">
<title>PutTemaComponent</title>
<polygon fill="#ffffb3" stroke="black" points="307.88,-122 176.12,-122 176.12,-86 307.88,-86 307.88,-122"/>
<text text-anchor="middle" x="242" y="-99.8" font-family="Times,serif" font-size="14.00">PutTemaComponent</text>
</g>
<!-- PutTemaComponent&#45;&gt;AppModule -->
<g id="edge14" class="edge">
<title>PutTemaComponent&#45;&gt;AppModule</title>
<path fill="none" stroke="black" d="M242,-122.29C242,-144.21 242,-178 242,-178 242,-178 1103.1,-178 1103.1,-178"/>
<polygon fill="black" stroke="black" points="1103.1,-181.5 1113.1,-178 1103.1,-174.5 1103.1,-181.5"/>
</g>
<!-- AppComponent  -->
<g id="node17" class="node">
<title>AppComponent </title>
<polygon fill="#80b1d3" stroke="black" points="1209.44,-252 1100.56,-252 1100.56,-216 1209.44,-216 1209.44,-252"/>
<text text-anchor="middle" x="1155" y="-229.8" font-family="Times,serif" font-size="14.00">AppComponent </text>
</g>
<!-- AppModule&#45;&gt;AppComponent  -->
<g id="edge16" class="edge">
<title>AppModule&#45;&gt;AppComponent </title>
<path fill="none" stroke="black" stroke-dasharray="1,5" d="M1155,-187.11C1155,-187.11 1155,-205.99 1155,-205.99"/>
<polygon fill="black" stroke="black" points="1151.5,-205.99 1155,-215.99 1158.5,-205.99 1151.5,-205.99"/>
</g>
<!-- AppRoutingModule -->
<g id="node16" class="node">
<title>AppRoutingModule</title>
<polygon fill="#8dd3c7" stroke="black" points="152.27,-122 149.27,-126 128.27,-126 125.27,-122 23.73,-122 23.73,-86 152.27,-86 152.27,-122"/>
<text text-anchor="middle" x="88" y="-99.8" font-family="Times,serif" font-size="14.00">AppRoutingModule</text>
</g>
<!-- AppRoutingModule&#45;&gt;AppModule -->
<g id="edge15" class="edge">
<title>AppRoutingModule&#45;&gt;AppModule</title>
<path fill="none" stroke="black" d="M88,-122.32C88,-145.66 88,-183 88,-183 88,-183 1103.17,-183 1103.17,-183"/>
<polygon fill="black" stroke="black" points="1103.17,-186.5 1113.17,-183 1103.17,-179.5 1103.17,-186.5"/>
</g>
</g>
</svg>
